# xmcd CD Database Entry
#
# Track frame offsets:
# 150
# 24657
# 44392
# 60880
# 81582
# 98252
# 118877
# 138372
# 153215
# 173665
#
# Disc length: 2643 seconds
#
# Revision: 1
# Processed by: cddbd v1.4PL0 Copyright (c) Steve Scherf et al.
# Submitted via: tcd 2.0b
#
DISCID=740a510a
DTITLE=Bilinmiyor - bilinmiyor
DYEAR=1900
DGENRE=
TTITLE0=Parça 1
TTITLE1=Parça 2
TTITLE2=Parça 3
TTITLE3=Parça 4
TTITLE4=Parça 5
TTITLE5=Parça 6
TTITLE6=Parça 7
TTITLE7=Parça 8
TTITLE8=Parça 9
TTITLE9=Parça 10
EXTD=
EXTT0=
EXTT1=
EXTT2=
EXTT3=
EXTT4=
EXTT5=
EXTT6=
EXTT7=
EXTT8=
EXTT9=
PLAYORDER=
